<svg id="Layer_1" height="512" viewBox="0 0 512 512" width="512" xmlns="http://www.w3.org/2000/svg" data-name="Layer 1"><path d="m232.77 202.62a26.288 26.288 0 0 0 -15.78-10.33.385.385 0 0 1 -.23-.64 11.124 11.124 0 0 1 4.86-2.47.378.378 0 0 0 .12-.68 25.614 25.614 0 0 0 -11.39-4.11l-.02-1.66a22.844 22.844 0 0 0 12.19-3.67.733.733 0 0 0 .24-1.04 7.667 7.667 0 0 0 -1.98-1.97c-.33-.21-.14-.73.27-.76a48.239 48.239 0 0 0 12.94-2.54 1.255 1.255 0 0 0 .12-.04c1.22-.38 11.21-3.32 20.12.41a.786.786 0 0 1 .38 1.06 9.69 9.69 0 0 1 -1.77 2.58.445.445 0 0 0 .37.76c4.63-.78 15.61-1.78 24.08 3.32h.01c-5.94 14.77-5.13 27.42-5.68 30.37a.436.436 0 0 1 -.69.28 23.7 23.7 0 0 1 -4.17-4.55.771.771 0 0 0 -1.28.05 31.253 31.253 0 0 0 -4.21 17.53 231.8 231.8 0 0 0 -25.19-13.17 1.208 1.208 0 0 0 .6-1.5 29.727 29.727 0 0 0 -3.91-7.23z" fill="#5cbc95"/><path d="m228.76 213.89a33.466 33.466 0 0 0 7.32-2.54 231.8 231.8 0 0 1 25.19 13.17 44.6 44.6 0 0 0 5.63 19.09.112.112 0 0 1 -.16.15 25.191 25.191 0 0 0 -6.39-2.67.763.763 0 0 0 -.93.68c-.89 12.08 9.01 21.95 13.12 25.5a.435.435 0 0 1 -.33.76 9.346 9.346 0 0 0 -3.04.31.768.768 0 0 0 -.55.97 28.055 28.055 0 0 0 -18.5-2.66.771.771 0 0 0 -.57.96 9.294 9.294 0 0 0 1.26 2.78.435.435 0 0 1 -.5.66c-4.1-1.42-13.56-4.01-22.32-1.51a62.7 62.7 0 0 1 -7.91-12.43.1.1 0 0 0 -.2.04 24.82 24.82 0 0 1 -1.68 6.47.69.69 0 0 1 -1.06.24c-9.58-7.25-11.29-21.05-11.59-26.42a.428.428 0 0 0 -.77-.26 7.95 7.95 0 0 1 -1.98 2.05.748.748 0 0 1 -1.05-.22c-2.73-4.18-6.73-8.65-8.65-12.85-1.19-4.68-3.32-10.72-4.97-13.6.46.26.95.5 1.46.73a.384.384 0 0 0 .54-.28 49.015 49.015 0 0 0 .55-7.17.67.67 0 0 1 1.22-.39c2.54 3.65 8.38 10.32 17.92 11.97a.386.386 0 0 0 .39-.58 11.113 11.113 0 0 1 -1.82-5.13.4.4 0 0 1 .61-.31c1.83 1.27 9.71 4.69 19.76 2.49z" fill="#4ca987"/><g fill="#448c6e"><path d="m231.844 213.084c8.9 4.006 23.724 11.945 31.328 16.564l3.115-5.128c-7.812-4.746-22.86-12.8-31.98-16.906z"/><path d="m232.775 205.619a2.99 2.99 0 0 0 1.124-.22c10.523-4.256 23.743-3.883 23.87-3.879a3 3 0 0 0 .2-6c-.589-.017-14.594-.429-26.318 4.314a3 3 0 0 0 1.126 5.782z"/><path d="m231.752 214.083a3 3 0 0 0 -5.988-.387c-.971 15.049 9.623 31.244 10.074 31.927a3 3 0 0 0 5-3.311c-.095-.15-9.926-15.212-9.086-28.229z"/></g><path d="m374.13 278.42a26.4 26.4 0 0 0 -18.71 2.44.387.387 0 0 1 -.59-.34 11.121 11.121 0 0 1 2.07-5.03.381.381 0 0 0 -.36-.59 26.118 26.118 0 0 0 -12.9 5.43c3.29-2.81 5.97-8.34 7.34-13.11a.741.741 0 0 0 -.5-.94 7.878 7.878 0 0 0 -2.78-.2.427.427 0 0 1 -.3-.75 48.216 48.216 0 0 0 8.06-10.2l.01.01s5.87-9.88 15.67-13.05a.78.78 0 0 1 .98.56 9.585 9.585 0 0 1 .35 3.1.442.442 0 0 0 .77.34c3.51-4.2 13.27-14.32 25.41-13.44a.792.792 0 0 1 .69.96 25.4 25.4 0 0 1 -2.58 6.52.112.112 0 0 0 .14.17c3.12-1.85 20.4-11.17 36.72-1.5a.791.791 0 0 1 .08 1.3 24.221 24.221 0 0 0 -4.51 4.27.453.453 0 0 0 .28.71c5.26.99 36.25-3.02 66.22 38.35a1.427 1.427 0 0 1 0 1.77c-25.4 29.31-58.38 37.76-63.52 38.63a.4.4 0 0 0 -.22.66 26.012 26.012 0 0 0 4.72 3.93.694.694 0 0 1 .01 1.2c-15.65 8.78-33.38.11-36.6-1.61-.1-.06-.19.07-.12.16a24.87 24.87 0 0 1 2.95 5.99.692.692 0 0 1 -.64.88c-12.01.73-22.32-8.61-26.05-12.49a.423.423 0 0 0 -.75.3 8.1 8.1 0 0 1 -.16 2.84.735.735 0 0 1 -.94.51c-4.8-1.39-10.26-1.67-14-3.94l-.01-.01c-3.62-3.28-8.72-6.74-12.01-7.63a.383.383 0 0 0 .22-.57 47.038 47.038 0 0 0 -4.26-5.79.668.668 0 0 1 .67-1.09c4.32 1.11 13.1 2.37 21.4-2.59a.382.382 0 0 0 -.07-.69 11.082 11.082 0 0 1 -4.73-2.71.387.387 0 0 1 .26-.63c2.22-.23 10.42-2.76 16.61-10.97a33.149 33.149 0 0 0 3.89-6.69 1.217 1.217 0 0 0 -.53-1.53 30.029 30.029 0 0 0 -7.68-2.94z" fill="#5e9e6e"/><path d="m322.89 303.31c.01-.07.01-.14.02-.21v-.05c2.29 3.18 12.13 15.48 25.44 11.57 3.29.89 8.39 4.35 12.01 7.63l.01.01a29.183 29.183 0 0 1 2.67 2.69.764.764 0 0 1 -.09 1.09 8.433 8.433 0 0 1 -2.53 1.4.427.427 0 0 0 .02.81c5.07 1.71 17.81 7.02 22.01 18.3a.715.715 0 0 1 -.54.97 24.141 24.141 0 0 1 -6.68-.06c-.12-.02-.2.12-.1.19 2.87 2.18 18.01 14.57 16.32 32.71a.712.712 0 0 1 -1.1.53 24.189 24.189 0 0 0 -5.52-2.59.42.42 0 0 0 -.51.49c1.29 5.07 8.74 38.57-7.79 74.66a1.477 1.477 0 0 1 -1.61.77c-55.61-8.96-60.75-38.94-63.79-43.3a.454.454 0 0 0 -.76.05 24.685 24.685 0 0 0 -2.08 5.99.816.816 0 0 1 -1.23.51c-15.47-10.66-13.95-30.54-13.52-34.2a.111.111 0 0 0 -.21-.06 27.258 27.258 0 0 1 -4.93 5.23.771.771 0 0 1 -1.15-.22c-5.74-10.69-.44-24.06 1.99-29.1a.434.434 0 0 0 -.62-.56 9.725 9.725 0 0 1 -2.99 1.04.75.75 0 0 1 -.91-.64c-1.07-10.35 5.72-21.15 5.72-21.15 2.85-3.69 4.38-9.41 5.1-13.26a30.94 30.94 0 0 0 10.34-6.76.672.672 0 0 1 1.13.61 48.026 48.026 0 0 0 -.78 7.14.387.387 0 0 0 .48.39c13.32-3.25 15.76-18.5 16.18-22.62z" fill="#5fcda4"/><path d="m322.13 300.83c-2.45-3.96-10.39-14.68-23.25-12.71a.389.389 0 0 0 -.29.54 47.177 47.177 0 0 0 3.44 6.31.668.668 0 0 1 -.81.99 31.282 31.282 0 0 0 -10.8-2.31s-18.71-14.52-21.8-24.34a.768.768 0 0 1 .55-.97 9.346 9.346 0 0 1 3.04-.31.435.435 0 0 0 .33-.76c-4.11-3.55-14.01-13.42-13.12-25.5a.763.763 0 0 1 .93-.68 25.191 25.191 0 0 1 6.39 2.67.112.112 0 0 0 .16-.15 44.6 44.6 0 0 1 -5.63-19.09 31.253 31.253 0 0 1 4.21-17.53.771.771 0 0 1 1.28-.05 23.7 23.7 0 0 0 4.17 4.55.436.436 0 0 0 .69-.28c.55-2.95-.26-15.6 5.68-30.37 4.54-11.35 13.08-23.95 29.28-34.37a1.409 1.409 0 0 1 1.72.02c28.67 25.72 39.59 57.96 40.44 63.09a.383.383 0 0 0 .63.23 25 25 0 0 0 3.87-4.66.672.672 0 0 1 1.17.01c8.57 15.72.06 33.28-1.63 36.46a.1.1 0 0 0 .16.12 23.766 23.766 0 0 1 5.87-2.86.686.686 0 0 1 .86.65 27.992 27.992 0 0 1 -4.21 15.6 48.216 48.216 0 0 1 -8.06 10.2.427.427 0 0 0 .3.75 7.878 7.878 0 0 1 2.78.2.741.741 0 0 1 .5.94c-1.37 4.77-4.05 10.3-7.34 13.11a32.176 32.176 0 0 0 -5.6 5.62.671.671 0 0 1 -1.2-.45 46.237 46.237 0 0 0 -.19-7.18.386.386 0 0 0 -.52-.32c-12.66 4.96-13.7 19.24-13.74 23.25-.08-.13-.16-.27-.26-.42z" fill="#449373"/><path d="m227.99 269.54c8.76-2.5 18.22.09 22.32 1.51a.435.435 0 0 0 .5-.66 9.294 9.294 0 0 1 -1.26-2.78.771.771 0 0 1 .57-.96 28.055 28.055 0 0 1 18.5 2.66c3.09 9.82 21.8 24.34 21.8 24.34a25.5 25.5 0 0 0 -10.76 2.01.38.38 0 0 0 -.01.69 11.135 11.135 0 0 1 4.32 3.32.384.384 0 0 1 -.34.59 25.318 25.318 0 0 0 -12.01 3.32 28.636 28.636 0 0 0 -10.57 10.33 1.2 1.2 0 0 0 .32 1.59 34.977 34.977 0 0 0 4.25 2.67c10.45 5.5 20.14 3.34 22.35 2.34a.385.385 0 0 1 .54.42 11.149 11.149 0 0 1 -2.72 4.71.377.377 0 0 0 .28.63 25.3 25.3 0 0 0 9.47-1.72c-.72 3.85-2.25 9.57-5.1 13.26a12 12 0 0 1 -.92 1.07.742.742 0 0 1 -1.07.04 7.6 7.6 0 0 1 -1.57-2.3.428.428 0 0 0 -.8.12c-1.28 5.12-5.49 18.12-16.23 23.51a.684.684 0 0 1 -.99-.42 23.266 23.266 0 0 1 -.46-6.5c.01-.12-.13-.18-.19-.08-1.91 3.05-12.88 19.19-30.8 19.65a.678.678 0 0 1 -.6-1.01 25.247 25.247 0 0 0 2.11-5.67.385.385 0 0 0 -.52-.43c-4.87 1.83-37.13 12.94-73.78 1.02a1.377 1.377 0 0 1 -.88-1.48c4.28-55.15 33.45-63.56 37.49-67.02a.43.43 0 0 0 -.11-.73 24.448 24.448 0 0 0 -6.03-1.34.763.763 0 0 1 -.59-1.13c9.25-16.28 28.85-17.08 32.47-17.09a.109.109 0 0 0 .04-.21 25.144 25.144 0 0 1 -5.5-4.19.765.765 0 0 1 .12-1.15 22 22 0 0 1 6.36-2.93z" fill="#5e9e6e"/><path d="m210.33 182.73.02 1.66a31.617 31.617 0 0 0 -9.86.45.67.67 0 0 1 -.62-1.12 47.658 47.658 0 0 0 4.55-5.57.384.384 0 0 0 -.19-.58c-12.84-4.49-22.96 5.67-25.6 8.69.71-4.07 2.19-18.11-9.26-25.25a.385.385 0 0 0 -.57.21 46.388 46.388 0 0 0 -1.51 7.03.668.668 0 0 1 -1.26.22 31.866 31.866 0 0 0 -5.3-7.43s-6.09-24.53-2.03-33.99a.794.794 0 0 1 1.05-.38 9.051 9.051 0 0 1 2.51 1.75.441.441 0 0 0 .75-.37c-.8-5.36-1.86-19.29 6.69-27.87a.767.767 0 0 1 1.16.09 25.137 25.137 0 0 1 3.1 6.17.112.112 0 0 0 .22 0c.68-3.55 5.09-22.63 22.83-28.69a.768.768 0 0 1 1.01.79 23.889 23.889 0 0 0 .19 6.16.434.434 0 0 0 .7.24c4.16-3.32 24.86-32.43 68.78-26.35a1.41 1.41 0 0 1 1.3 1.14c4.95 38.16-7.82 69.71-10.53 74.15a.387.387 0 0 0 .34.59 25.04 25.04 0 0 0 5.97-1.01.671.671 0 0 1 .88.77c-3.76 17.49-21.69 25.27-25.04 26.58a.1.1 0 0 0 .04.2 23.7 23.7 0 0 1 6.32 1.65.682.682 0 0 1 .22 1.06 28.094 28.094 0 0 1 -13.08 8.99 1.255 1.255 0 0 1 -.12.04 48.239 48.239 0 0 1 -12.94 2.54c-.41.03-.6.55-.27.76a7.667 7.667 0 0 1 1.98 1.97.733.733 0 0 1 -.24 1.04 22.844 22.844 0 0 1 -12.19 3.67z" fill="#4ca987"/><path d="m130.5 193.23v-.02c4.69-.89 10.19-4.05 13.26-6.51a31.314 31.314 0 0 0 11.55 1.36.668.668 0 0 1 .46 1.19 48.134 48.134 0 0 0 -5.26 4.92.386.386 0 0 0 .11.6c12.45 6.32 24.45-4.13 27.19-6.77a.078.078 0 0 0 .04-.04c-.33 3.74-.87 18.39 10.28 24.6 1.65 2.88 3.78 8.92 4.97 13.6a30.574 30.574 0 0 1 .88 4.53.732.732 0 0 1 -.77.76 8.27 8.27 0 0 1 -2.84-.59.431.431 0 0 0 -.51.64c2.73 4.59 8.92 16.91 4.74 28.2a.718.718 0 0 1 -1.05.38 23.844 23.844 0 0 1 -5.02-4.39c-.08-.1-.23-.04-.2.08.76 3.52 4.14 22.76-8.98 35.43a.716.716 0 0 1 -1.18-.32 24.077 24.077 0 0 0 -2.5-5.55.408.408 0 0 0 -.7.04c-2.34 4.68-18.56 34.94-54.65 51.54a1.467 1.467 0 0 1 -1.73-.46c-36.33-42.98-20.65-69.06-20.11-74.35a.449.449 0 0 0 -.61-.45 25.433 25.433 0 0 0 -5.49 3.19.815.815 0 0 1 -1.26-.42c-4.77-18.15 9.36-32.23 12.08-34.73a.115.115 0 0 0 -.12-.19 26.868 26.868 0 0 1 -7.15.76.765.765 0 0 1 -.74-.91c2.64-11.84 15.38-18.53 20.51-20.78a.429.429 0 0 0 -.1-.82 10.126 10.126 0 0 1 -2.95-1.15.754.754 0 0 1 -.26-1.09c5.75-8.28 17.39-12.05 18.11-12.28z" fill="#5fcda4"/><path d="m123.18 156.49a1.2 1.2 0 0 0 -.13.87c3.34 14.44 14.26 20.33 16.9 21.11a.387.387 0 0 1 .14.67 11.14 11.14 0 0 1 -5.14 1.8.38.38 0 0 0 -.21.66 25.229 25.229 0 0 0 9.02 5.1c-3.07 2.46-8.57 5.62-13.26 6.51a13.722 13.722 0 0 1 -1.37.2.748.748 0 0 1 -.84-.67 7.642 7.642 0 0 1 .32-2.77c.12-.37-.35-.66-.69-.42-4.31 3.05-16 10.16-27.66 7.26a.676.676 0 0 1 -.48-.96 23.5 23.5 0 0 1 3.9-5.23.1.1 0 0 0 -.1-.18c-3.43 1.06-22.29 6.17-36.18-5.14a.677.677 0 0 1 .21-1.16 25.387 25.387 0 0 0 5.3-2.92.394.394 0 0 0 -.11-.67c-4.9-1.79-36.61-14.35-56.62-47.23a1.371 1.371 0 0 1 .3-1.7c39.25-39.04 66.86-26.43 72.19-26.43a.435.435 0 0 0 .39-.63 24.262 24.262 0 0 0 -3.7-4.93.767.767 0 0 1 .29-1.25c17.64-6.32 33.03 5.82 35.78 8.17a.109.109 0 0 0 .17-.13 25.529 25.529 0 0 1 -1.44-6.76.767.767 0 0 1 .85-.79c12.05 1.37 19.94 12.9 22.67 17.58a.434.434 0 0 0 .81-.17 9.19 9.19 0 0 1 .87-2.93.763.763 0 0 1 1.05-.36 30.5 30.5 0 0 1 12.78 13.64.729.729 0 0 0 -.49.42c-4.06 9.46 2.03 33.99 2.03 33.99a25.812 25.812 0 0 0 -10.86-6.82.382.382 0 0 0 -.46.52 10.938 10.938 0 0 1 1.11 5.32.382.382 0 0 1 -.64.23 25.149 25.149 0 0 0 -11.28-5.3 28.706 28.706 0 0 0 -14.75.96 1.2 1.2 0 0 0 -.67.54z" fill="#5e9e6e"/><path d="m128.48 262.1a.449.449 0 0 0 -.61-.45 25.433 25.433 0 0 0 -5.49 3.19.815.815 0 0 1 -1.26-.42c-4.77-18.15 9.36-32.23 12.08-34.73a.115.115 0 0 0 -.12-.19 26.868 26.868 0 0 1 -7.15.76.765.765 0 0 1 -.74-.91c2.64-11.84 15.38-18.53 20.51-20.78a.429.429 0 0 0 -.1-.82 10.126 10.126 0 0 1 -2.95-1.15.754.754 0 0 1 -.26-1.09c3.02-4.348 7.662-7.451 11.5-9.452a18.678 18.678 0 0 1 -3.266-1.288.386.386 0 0 1 -.11-.6 48.134 48.134 0 0 1 5.26-4.92.668.668 0 0 0 -.46-1.19 32.565 32.565 0 0 1 -11.8-1.36c-3.07 2.46-8.51 5.62-13.51 6.51v.02c0 .23-12.11 4-17.86 12.28a.8.8 0 0 0 .385 1.09 10.592 10.592 0 0 0 3.013 1.15.432.432 0 0 1 .131.82c-5.13 2.25-17.855 8.94-20.495 20.78a.771.771 0 0 0 .748.91 26.9 26.9 0 0 0 7.154-.76.116.116 0 0 1 .122.19c-2.72 2.5-16.849 16.58-12.079 34.73a.815.815 0 0 0 1.26.42 25.443 25.443 0 0 1 5.491-3.19.449.449 0 0 1 .61.45c-.54 5.29-16.22 31.37 20.11 74.35a1.467 1.467 0 0 0 1.73.46 115.123 115.123 0 0 0 19.721-11.592c-25.092-36.349-12.057-58.402-11.565-63.218z" fill="#4ba37f"/><path d="m97.4 185.3a.677.677 0 0 1 .21-1.16 25.387 25.387 0 0 0 5.3-2.92.394.394 0 0 0 -.11-.67c-4.9-1.79-36.61-14.35-56.62-47.23a1.371 1.371 0 0 1 .3-1.7c16.178-16.091 30.375-23.4 41.853-26.445-6.067-.455-33.362-11.841-71.853 26.445a1.371 1.371 0 0 0 -.3 1.7c20.01 32.88 51.72 45.44 56.62 47.23a.394.394 0 0 1 .11.67 25.387 25.387 0 0 1 -5.3 2.92.677.677 0 0 0 -.21 1.16c13.89 11.31 32.75 6.2 36.18 5.14a.1.1 0 0 1 .1.18 23.5 23.5 0 0 0 -3.9 5.23.676.676 0 0 0 .48.96c8.789 2.186 17.594-1.316 23.243-4.479-7.52.638-17.715-.201-26.103-7.031z" fill="#4c7c56"/><path d="m175.7 139.05a.794.794 0 0 1 1.05-.38 9.051 9.051 0 0 1 2.51 1.75.441.441 0 0 0 .75-.37c-.8-5.36-1.86-19.29 6.69-27.87a.767.767 0 0 1 1.16.09 25.137 25.137 0 0 1 3.1 6.17.112.112 0 0 0 .22 0c.68-3.55 5.09-22.63 22.83-28.69a.768.768 0 0 1 1.01.79 23.889 23.889 0 0 0 .19 6.16.434.434 0 0 0 .7.24c3.662-2.923 20.149-25.817 54-27.113-.179-3.3-.476-6.672-.92-10.1a1.41 1.41 0 0 0 -1.3-1.14c-43.92-6.08-64.62 23.03-68.78 26.35a.434.434 0 0 1 -.7-.24 23.889 23.889 0 0 1 -.19-6.16.768.768 0 0 0 -1.01-.79c-17.74 6.06-22.15 25.14-22.83 28.69a.112.112 0 0 1 -.22 0 25.137 25.137 0 0 0 -3.1-6.17.767.767 0 0 0 -1.16-.09c-8.55 8.58-7.49 22.51-6.69 27.87a.441.441 0 0 1 -.75.37 9.051 9.051 0 0 0 -2.51-1.75.794.794 0 0 0 -1.05.38c-4.06 9.46 2.03 33.99 2.03 33.99a31.866 31.866 0 0 1 5.3 7.43.668.668 0 0 0 1.26-.22 46.388 46.388 0 0 1 1.51-7.03.385.385 0 0 1 .57-.21 19.429 19.429 0 0 1 7.63 8.783c-1.489-6.984-4.451-23.398-1.3-30.74z" fill="#3e896a"/><path d="m486.051 281.546c-.734-.491-10.564-6.851-30.386-9.439a27.643 27.643 0 0 1 7.693-2.423 3 3 0 0 0 -.837-5.941c-1.209.17-10.971 1.71-15.157 7.563a159.343 159.343 0 0 0 -29.272.985 31.02 31.02 0 0 1 14.483-7.976 3 3 0 0 0 -1.108-5.9c-.609.113-14.492 2.84-21.877 15.092a236.294 236.294 0 0 0 -28.1 6.506 3 3 0 0 0 1.692 5.757 224.887 224.887 0 0 1 28.578-6.5c9.013 15.042 21.012 16.852 21.541 16.924a3.116 3.116 0 0 0 .407.028 3 3 0 0 0 .425-5.97c-.388-.059-8.665-1.446-15.834-11.89a154.955 154.955 0 0 1 28.023-.984 17.79 17.79 0 0 0 10.284 13.312 3 3 0 1 0 2.44-5.482 11.6 11.6 0 0 1 -6.415-7.288c20.078 2.243 29.9 8.489 30.085 8.613a3 3 0 0 0 3.334-4.989z" fill="#497a54"/><path d="m376.8 279.8c5.2-10.072 15.463-18.39 15.566-18.473a3 3 0 0 0 -3.755-4.68c-.46.37-11.349 9.175-17.143 20.4a3 3 0 0 0 5.332 2.753z" fill="#497a54"/><path d="m406.17 303.271c-.174-.049-17.442-5.044-25.329-15.5a3 3 0 0 0 -4.789 3.614c9.087 12.043 27.692 17.431 28.479 17.654a3 3 0 0 0 1.639-5.772z" fill="#497a54"/><path d="m242.323 287.535a3 3 0 0 0 -.882 5.934c.188.029 18.948 2.925 28.036 12.212a3 3 0 1 0 4.289-4.2c-10.51-10.736-30.593-13.82-31.443-13.946z" fill="#457c50"/><path d="m266.734 315.38a2.989 2.989 0 0 0 -3.074.532 2.989 2.989 0 0 0 -3.455-4.071c-9.067 2.157-17.242 4.449-24.617 6.81a35.149 35.149 0 0 0 -29.033-8.321 3 3 0 1 0 1.3 5.858 29.232 29.232 0 0 1 20.88 4.757 204.768 204.768 0 0 0 -27.21 11.585c-6.47-3.252-17.292-2.431-18.607-2.316a3 3 0 1 0 .521 5.977 47.523 47.523 0 0 1 10.87.363c-18.2 10.868-23.265 19.853-23.608 20.5a3 3 0 0 0 2.641 4.405 3.021 3.021 0 0 0 2.638-1.552c.035-.063 3.623-6.363 15.878-14.671 2.12-1.436 4.587-2.989 7.436-4.621.429 3.74.257 9.388-3.793 12.7a3 3 0 0 0 3.8 4.646c7.3-5.965 6.482-15.8 5.607-20.389a203.882 203.882 0 0 1 26.806-11.285c-1.308 12.076-10.074 16.548-10.495 16.756a3 3 0 0 0 2.6 5.406c.577-.275 13.549-6.7 14.036-24.2 7.086-2.262 14.967-4.475 23.739-6.562a2.98 2.98 0 0 0 1.258-.658c0 .012-.012.021-.017.032-3.929 9.83-12.189 18.3-12.271 18.38a3 3 0 0 0 4.273 4.212c.373-.379 9.182-9.387 13.57-20.365a3 3 0 0 0 -1.673-3.908z" fill="#457c50"/><path d="m262.385 65.846c-.874.275-11.191 3.754-25.332 17.568a33.332 33.332 0 0 1 2.3-8.528 3 3 0 0 0 -5.5-2.409c-.476 1.082-4.191 9.929-2.413 16.772a175.324 175.324 0 0 0 -17.48 23.093 44.9 44.9 0 0 1 1.413-17.836 3 3 0 0 0 -5.7-1.882c-.191.574-4.45 13.764-.206 27.018a283.349 283.349 0 0 0 -16.467 32.97c-7.211-10.593-6.31-28.86-6.3-29.065a3 3 0 0 0 -5.99-.336c-.057 1.009-1.2 23.845 9.665 35.733q-3.252 8.084-6.407 17.1a3 3 0 1 0 5.666 1.976c2.861-8.2 5.8-15.781 8.791-22.8.631.04 1.263.067 1.9.067 14.215 0 28.7-9.661 29.365-10.113a3 3 0 0 0 -3.358-4.973c-.146.1-13.163 8.753-25.3 9.073a249.022 249.022 0 0 1 20.008-36.586 42.235 42.235 0 0 0 7.17.626 40.169 40.169 0 0 0 22.381-6.616 3 3 0 1 0 -3.555-4.833 34.9 34.9 0 0 1 -22.137 5.286c21.155-29.236 38.934-35.469 39.3-35.589a3 3 0 0 0 -1.812-5.72z" fill="#2f6d51"/><path d="m135.61 155.184a3 3 0 0 0 2.992 2.808c.064 0 .129 0 .194-.006a3 3 0 0 0 2.8-3.186c-.96-14.985-14.178-30.4-14.741-31.044a3 3 0 0 0 -4.535 3.928c.128.144 12.461 14.546 13.29 27.5z" fill="#385b3d"/><path d="m127.192 160.761a2.985 2.985 0 0 0 -2.7-1.6 2.956 2.956 0 0 0 1.346-1.3 3 3 0 0 0 -1.294-4.04c-8.284-4.264-15.979-7.845-23.113-10.853a35.059 35.059 0 0 0 -16.587-25.2 3 3 0 0 0 -2.836 5.287 28.823 28.823 0 0 1 12.743 17.2 204.833 204.833 0 0 0 -28.233-8.931c-2.788-6.676-11.506-13.09-12.581-13.86a3 3 0 0 0 -3.5 4.875 47.7 47.7 0 0 1 8 7.346c-20.9-3.6-30.606-.083-31.285.179a3 3 0 0 0 2.166 5.6c.155-.06 9.484-3.43 30.282.525-2.1 3.115-5.921 7.3-11.2 7.181a3 3 0 1 0 -.142 6h.388c9.223 0 14.907-7.876 17.19-11.852a201.9 201.9 0 0 1 27.693 8.9c-8.878 8.32-18.452 6.012-18.921 5.892a3 3 0 0 0 -1.544 5.8 21.847 21.847 0 0 0 5.28.576c5.29 0 13.689-1.563 21.182-9.807 6.865 2.909 14.279 6.368 22.271 10.481a2.983 2.983 0 0 0 1.342.329c-9.4 4.9-21.191 5.943-21.309 5.953a3 3 0 0 0 .248 5.99c.083 0 .167 0 .252-.011.529-.044 13.09-1.143 23.584-6.612a3 3 0 0 0 1.278-4.048z" fill="#385b3d"/><path d="m170.737 199.4a3 3 0 0 0 -4.21.53q-5.866 7.557-10.871 14.688c-15.9-2.618-34.456 10.782-35.274 11.382a3 3 0 0 0 3.542 4.842c.165-.122 15.013-10.83 27.841-10.571a283.336 283.336 0 0 0 -18.708 31.745c-13.443 3.669-22.2 14.423-22.577 14.9a3 3 0 0 0 4.679 3.755 44.564 44.564 0 0 1 14.213-10.912 174.961 174.961 0 0 0 -9.865 27.214c-6.715 2.238-12.121 10.172-12.772 11.16a3 3 0 0 0 5.01 3.3 33.487 33.487 0 0 1 5.918-6.574c-3.892 19.363-1.191 29.893-.946 30.775a2.992 2.992 0 0 0 2.884 2.191 3 3 0 0 0 2.9-3.786c-.074-.277-4.587-18.563 8.474-52.294a35.213 35.213 0 0 1 7.63 21.414 3 3 0 0 0 2.819 3.161h.179a3 3 0 0 0 2.992-2.824 40.7 40.7 0 0 0 -11.074-28.006 249.155 249.155 0 0 1 19.826-36.69c6.332 10.3 6.174 25.847 6.171 26.119a3 3 0 0 0 2.943 3.055h.057a3 3 0 0 0 3-2.945c.015-.841.25-19.765-8.6-31.642 4.263-6.322 9.021-12.914 14.351-19.779a3 3 0 0 0 -.532-4.208z" fill="#2f6d51"/><path d="m334.2 237.132a3 3 0 0 0 -5.614-2.116c-.073.192-6.6 17.26-16.156 25.9a247.836 247.836 0 0 1 -6.743-40.195c15.055-9.084 19.154-25.886 19.328-26.623a3 3 0 0 0 -5.842-1.37c-.033.144-3.164 12.971-13.932 21.06a182.5 182.5 0 0 1 .06-18.907c1.355-23.745 7.195-36.465 7.254-36.591a3 3 0 0 0 -5.428-2.558c-.229.485-5.062 10.926-7.156 30.707a36.018 36.018 0 0 1 -4.245-9.142 3 3 0 0 0 -5.751 1.703c.364 1.232 3.47 11.216 9.348 15.388a192.747 192.747 0 0 0 .214 24.723 2.937 2.937 0 0 0 .025.374q.124 1.713.275 3.416a36.724 36.724 0 0 1 -9.379-14.834 3 3 0 0 0 -5.768 1.65c.166.586 4.1 13.961 16.019 21.375a267.793 267.793 0 0 0 6.949 35.293 2.943 2.943 0 0 0 .221.843c.07.262.142.519.213.78-11.58-3.507-20.115-18.906-20.267-19.181a3 3 0 1 0 -5.275 2.856c.476.881 11.4 20.717 27.385 22.843 3.059 10.379 6.493 19.862 9.725 28.059.074.189.34.362.34.526v.025l5.929-.3a2.964 2.964 0 0 0 -.524-1.465 3.008 3.008 0 0 0 -.21-.982 323.128 323.128 0 0 1 -11.088-33.089c12.023-9.016 19.754-29.267 20.093-30.168z" fill="#3b7f62"/><path d="m319.873 303.138c.642 12.641 1.854 24.334 3.456 35.111-13.71 8.357-18.939 30.077-19.164 31.039a3 3 0 1 0 5.842 1.366c.047-.2 4.285-17.858 14.365-25.841.064.38.13.759.194 1.137a3 3 0 0 0 .129.753 297.164 297.164 0 0 0 8.153 34.6c-7.8 11.305-9.4 24.435-9.465 25.008a3 3 0 0 0 2.633 3.322 3.2 3.2 0 0 0 .351.02 3 3 0 0 0 2.976-2.651 57.969 57.969 0 0 1 5.914-18.121c.072.214.143.423.216.636a2.943 2.943 0 0 0 .193.57c2.7 7.919 5.472 14.786 8.1 20.6-4.8 9.736-2.934 21.746-2.847 22.277a3 3 0 0 0 2.957 2.52 2.939 2.939 0 0 0 .483-.039 3 3 0 0 0 2.482-3.441 39.928 39.928 0 0 1 .557-13.719c9.678 19.211 18.15 28.128 18.538 28.531a3 3 0 0 0 4.325-4.159c-.1-.1-9.962-10.534-20.311-32.875-2.265-4.891-4.664-10.616-7.041-17.168 12.372 3.26 18.549 15.135 18.618 15.269a3 3 0 0 0 5.36-2.7c-.358-.711-8.656-16.841-26.253-19.127a282 282 0 0 1 -9.283-36.26c11.421 3.831 21.24 15.8 21.35 15.93a3 3 0 0 0 4.664-3.775c-.534-.66-12.661-15.467-27.174-18.7a353.208 353.208 0 0 1 -4.329-40.428" fill="#4fa380"/><path d="m236.68 209.85a1.208 1.208 0 0 1 -.6 1.5s-32.51-17.77-58.22-23.46a2.584 2.584 0 0 1 .61-1.45c.05-.06.1-.12.16-.18 2.64-3.02 12.76-13.18 25.6-8.69a.384.384 0 0 1 .19.58 47.658 47.658 0 0 1 -4.55 5.57.67.67 0 0 0 .62 1.12 31.617 31.617 0 0 1 9.86-.45 25.614 25.614 0 0 1 11.39 4.11.378.378 0 0 1 -.12.68 11.124 11.124 0 0 0 -4.86 2.47.385.385 0 0 0 .23.64 26.288 26.288 0 0 1 15.78 10.33 29.727 29.727 0 0 1 3.91 7.23z" fill="#72c469"/><path d="m236.08 211.35a33.466 33.466 0 0 1 -7.32 2.54c-10.05 2.2-17.93-1.22-19.76-2.49a.4.4 0 0 0 -.61.31 11.113 11.113 0 0 0 1.82 5.13.386.386 0 0 1 -.39.58c-9.54-1.65-15.38-8.32-17.92-11.97a.67.67 0 0 0 -1.22.39 49.015 49.015 0 0 1 -.55 7.17.384.384 0 0 1 -.54.28c-.51-.23-1-.47-1.46-.73-11.15-6.21-10.61-20.86-10.28-24.6a.2.2 0 0 0 .01-.07c25.71 5.69 58.22 23.46 58.22 23.46z" fill="#58ba50"/><path d="m169.37 161.01c11.45 7.14 9.97 21.18 9.26 25.25-.06.06-.11.12-.16.18a2.584 2.584 0 0 0 -.61 1.45.2.2 0 0 1 -.01.07.078.078 0 0 1 -.04.04c-20.54-16.46-54.76-30.64-54.76-30.64a1.2 1.2 0 0 1 .8-1.41 28.706 28.706 0 0 1 14.75-.96 25.149 25.149 0 0 1 11.28 5.3.382.382 0 0 0 .64-.23 10.938 10.938 0 0 0 -1.11-5.32.382.382 0 0 1 .46-.52 25.812 25.812 0 0 1 10.86 6.82 31.866 31.866 0 0 1 5.3 7.43.668.668 0 0 0 1.26-.22 46.388 46.388 0 0 1 1.51-7.03.385.385 0 0 1 .57-.21z" fill="#72c469"/><path d="m177.81 188c-2.74 2.64-14.74 13.09-27.19 6.77a.386.386 0 0 1 -.11-.6 48.134 48.134 0 0 1 5.26-4.92.668.668 0 0 0 -.46-1.19 31.314 31.314 0 0 1 -11.55-1.36 25.229 25.229 0 0 1 -9.02-5.1.38.38 0 0 1 .21-.66 11.14 11.14 0 0 0 5.14-1.8.387.387 0 0 0 -.14-.67c-2.64-.78-13.56-6.67-16.9-21.11 0 0 34.22 14.18 54.76 30.64z" fill="#58ba50"/><path d="m381.81 281.36a1.217 1.217 0 0 1 .53 1.53s-36.25 7.68-59.47 20.1a2.6 2.6 0 0 1 -.48-1.5v-.24c.04-4.01 1.08-18.29 13.74-23.25a.386.386 0 0 1 .52.32 46.237 46.237 0 0 1 .19 7.18.671.671 0 0 0 1.2.45 32.176 32.176 0 0 1 5.6-5.62 26.118 26.118 0 0 1 12.9-5.43.381.381 0 0 1 .36.59 11.121 11.121 0 0 0 -2.07 5.03.387.387 0 0 0 .59.34 26.4 26.4 0 0 1 18.71-2.44 30.029 30.029 0 0 1 7.68 2.94z" fill="#72c469"/><path d="m382.34 282.89a33.149 33.149 0 0 1 -3.89 6.69c-6.19 8.21-14.39 10.74-16.61 10.97a.387.387 0 0 0 -.26.63 11.082 11.082 0 0 0 4.73 2.71.382.382 0 0 1 .07.69c-8.3 4.96-17.08 3.7-21.4 2.59a.668.668 0 0 0 -.67 1.09 47.038 47.038 0 0 1 4.26 5.79.383.383 0 0 1 -.22.57c-13.31 3.91-23.15-8.39-25.44-11.57-.01-.02-.03-.04-.04-.06 23.22-12.42 59.47-20.1 59.47-20.1z" fill="#58ba50"/><path d="m322.88 303.1a1.477 1.477 0 0 0 .01.21c-.42 4.12-2.86 19.37-16.18 22.62a.387.387 0 0 1 -.48-.39 48.026 48.026 0 0 1 .78-7.14.672.672 0 0 0 -1.13-.61 30.94 30.94 0 0 1 -10.34 6.76 25.3 25.3 0 0 1 -9.47 1.72.377.377 0 0 1 -.28-.63 11.149 11.149 0 0 0 2.72-4.71.385.385 0 0 0 -.54-.42c-2.21 1-11.9 3.16-22.35-2.34a34.977 34.977 0 0 1 -4.25-2.67s35.18-11.51 61.51-12.4z" fill="#58ba50"/><path d="m322.87 302.99a.41.41 0 0 0 .01.11c-26.33.89-61.51 12.4-61.51 12.4a1.2 1.2 0 0 1 -.32-1.59 28.636 28.636 0 0 1 10.57-10.33 25.318 25.318 0 0 1 12.01-3.32.384.384 0 0 0 .34-.59 11.135 11.135 0 0 0 -4.32-3.32.38.38 0 0 1 .01-.69 25.5 25.5 0 0 1 10.76-2.01 31.282 31.282 0 0 1 10.8 2.31.668.668 0 0 0 .81-.99 47.177 47.177 0 0 1 -3.44-6.31.389.389 0 0 1 .29-.54c12.86-1.97 20.8 8.75 23.25 12.71.09.22.17.44.26.66a2.6 2.6 0 0 0 .48 1.5z" fill="#72c469"/></svg>